DataType=double
version=3
OpenSimVersion=4.1
endheader
time	pelvis_tilt	pelvis_list	pelvis_rotation	pelvis_tx	pelvis_ty	pelvis_tz	hip_flexion_r	hip_adduction_r	hip_rotation_r	knee_angle_r	knee_angle_r_beta	ankle_angle_r	subtalar_angle_r	mtp_angle_r	hip_flexion_l	hip_adduction_l	hip_rotation_l	knee_angle_l	knee_angle_l_beta	ankle_angle_l	subtalar_angle_l	mtp_angle_l	lumbar_extension	lumbar_bending	lumbar_rotation	arm_flex_r	arm_add_r	arm_rot_r	elbow_flex_r	pro_sup_r	wrist_flex_r	wrist_dev_r	arm_flex_l	arm_add_l	arm_rot_l	elbow_flex_l	pro_sup_l	wrist_flex_l	wrist_dev_l
18.23000000000005	-0.04245180602094246	-0.01866649403454288	4.984569780226378	0	0.9399999999999999	0	0.2858544061895689	-0.2102471838435434	-0.151035570214342	1.035086313353367	1.035086313353367	-0.2161219658362385	0	0	0.3010333204810313	-0.0179557193260505	-0.08705263216424924	0.2388168939995953	0.2388168939995953	0.02710798468839444	0	0	0	0	0	0	-0.26179937377236	0	1.309000008089962	0.7853981678539818	0	0	0	-0.26179937377236	0	1.309000008089962	0.7853981678539818	0	0
18.24000000000005	-0.04431325007042024	-0.01848486194922901	4.994451165834909	0	0.9399999999999999	0	0.3002920631207562	-0.2198877273399692	-0.1455374397171249	1.024455923495155	1.024455923495155	-0.2091059474051302	0	0	0.2960886354232974	-0.01506320987905379	-0.08040180454631109	0.2394337740949591	0.2394337740949591	0.03137176726463016	0	0	0	0	0	0	-0.2617993737741902	0	1.309000008089962	0.7853981678539818	0	0	0	-0.2617993737741902	0	1.309000008089962	0.7853981678539818	0	0
18.25000000000005	-0.04590095749280359	-0.01842017736886648	5.0051853990257	0	0.9399999999999999	0	0.3126265169782791	-0.2281772315810632	-0.1417632995674853	1.007839003330243	1.007839003330243	-0.2020122876256011	0	0	0.2921099564412402	-0.01191993306499516	-0.07529041936641394	0.2413659527021535	0.2413659527021535	0.03570041648851492	0	0	0	0	0	0	-0.2617993737799681	0	1.309000008089962	0.7853981678539818	0	0	0	-0.2617993737799681	0	1.309000008089962	0.7853981678539818	0	0
18.26000000000005	-0.0481711357100063	-0.01862525055283307	5.01650378554522	0	0.9399999999999999	0	0.3206594666561713	-0.2336873292020731	-0.1404153992245336	0.9828896849029293	0.9828896849029293	-0.1945728449050889	0	0	0.288598747812214	-0.01014848390675072	-0.07121392307454769	0.2439573195234088	0.2439573195234088	0.04011891784445425	0	0	0	0	0	0	-0.2617993738272386	0	1.309000008089962	0.7853981678539818	0	0	0	-0.2617993738272386	0	1.309000008089962	0.7853981678539818	0	0
18.27000000000006	-0.05074074804792006	-0.01843821383670501	5.028263283441896	0	0.9399999999999999	0	0.3292047984493568	-0.2367765611728923	-0.1396321064631612	0.9575536885353106	0.9575536885353106	-0.1831543266365836	0	0	0.2855768354948433	-0.008366330504887809	-0.06786991994543849	0.2459904765626071	0.2459904765626071	0.04359465040742421	0	0	0	0	0	0	-0.2617993738755163	0	1.309000008089962	0.7853981678539818	0	0	0	-0.2617993738755163	0	1.309000008089962	0.7853981678539818	0	0
18.28000000000006	-0.05223211561651833	-0.01810632231533265	5.040791850495922	0	0.9399999999999999	0	0.3368336093488921	-0.2396439285928293	-0.1377126981855907	0.9315159908243719	0.9315159908243719	-0.1688311938626828	0	0	0.2830476139596871	-0.006205918505811446	-0.06394612021560625	0.248259660044852	0.248259660044852	0.04644647997193389	0	0	0	0	0	0	-0.2617993739240237	0	1.309000008089962	0.7853981678539818	0	0	0	-0.2617993739240237	0	1.309000008089962	0.7853981678539818	0	0
18.29000000000006	-0.05404162443994802	-0.01771444643636142	5.054052599058498	0	0.9399999999999999	0	0.3433247239294024	-0.2402756233351642	-0.1363005074384719	0.9009050889128777	0.9009050889128777	-0.156448026260988	0	0	0.2799134462115342	-0.004332553795744	-0.05943108060306072	0.2501668452604513	0.2501668452604513	0.05005713729783615	0	0	0	0	0	0	-0.2617993739722094	0	1.309000008089962	0.7853981678539818	0	0	0	-0.2617993739722094	0	1.309000008089962	0.7853981678539818	0	0
18.30000000000006	-0.0549644224373867	-0.01710231031793241	5.068073931068	0	0.9399999999999999	0	0.3486733880767467	-0.2406336823397075	-0.1340080157769822	0.8681752351842241	0.8681752351842241	-0.1448069031976546	0	0	0.2774363888538813	-0.001521394338627076	-0.05408792228849448	0.2533460408783045	0.2533460408783045	0.05447657519616733	0	0	0	0	0	0	-0.2617993740208093	0	1.309000008089962	0.7853981678539818	0	0	0	-0.2617993740208093	0	1.309000008089962	0.7853981678539818	0	0
18.31000000000006	-0.05530638316430875	-0.01562047472146551	5.08247859918329	0	0.9399999999999999	0	0.3552082359655103	-0.2398105281322134	-0.1314747882013806	0.8347679193952917	0.8347679193952917	-0.1331853537215994	0	0	0.2761506370766592	0.002501341007559348	-0.04843691203340481	0.2580222512793166	0.2580222512793166	0.05928657605312688	0	0	0	0	0	0	-0.2617993740716566	0	1.309000008089962	0.7853981678539818	0	0	0	-0.2617993740716566	0	1.309000008089962	0.7853981678539818	0	0
18.32000000000006	-0.05579230798736717	-0.01425194636938261	5.097607803402894	0	0.9399999999999999	0	0.3615785014394393	-0.2368563487819175	-0.1282541604797723	0.8000322313702074	0.8000322313702074	-0.1230791487132466	0	0	0.2749063701198274	0.006121249010889969	-0.04130976173602953	0.2633219606988156	0.2633219606988156	0.06505469756467319	0	0	0	0	0	0	-0.2617993741224302	0	1.309000008089962	0.7853981678539818	0	0	0	-0.2617993741224302	0	1.309000008089962	0.7853981678539818	0	0
18.33000000000007	-0.05613227878557059	-0.01276373304197676	5.113246182455194	0	0.9399999999999999	0	0.3687363049849656	-0.2314732053761783	-0.1231925320680104	0.7659447734073321	0.7659447734073321	-0.1122495314244635	0	0	0.2743533962095896	0.01005360389200216	-0.03320094661411688	0.2688486208513265	0.2688486208513265	0.07064030504418486	0	0	0	0	0	0	-0.261799374172179	0	1.309000008089962	0.7853981678539818	0	0	0	-0.261799374172179	0	1.309000008089962	0.7853981678539818	0	0
18.34000000000007	-0.05622701344296503	-0.01114987834080222	5.129367359524663	0	0.9399999999999999	0	0.3763833381166595	-0.2244557522336268	-0.1154904754741987	0.7336935996775201	0.7336935996775201	-0.1004269844772167	0	0	0.2742796586055153	0.01414884030182211	-0.0238963229227956	0.2749117374008344	0.2749117374008344	0.07589506004695137	0	0	0	0	0	0	-0.2617993742222499	0	1.309000008089962	0.7853981678539818	0	0	0	-0.2617993742222499	0	1.309000008089962	0.7853981678539818	0	0
18.35000000000007	-0.05662201220513834	-0.009515399602435401	5.146014569857926	0	0.9399999999999999	0	0.3843644236576442	-0.2151280258542378	-0.1062693419409797	0.7018954928338955	0.7018954928338955	-0.08938747259956425	0	0	0.2743023179826177	0.01836300087679084	-0.01340907368994692	0.2818670329457362	0.2818670329457362	0.08213514302303819	0	0	0	0	0	0	-0.2617993742713806	0	1.309000008089962	0.7853981678539818	0	0	0	-0.2617993742713806	0	1.309000008089962	0.7853981678539818	0	0
18.36000000000007	-0.05695103998989187	-0.008194558190087915	5.16313384827981	0	0.9399999999999999	0	0.3914402734508011	-0.2044120546363195	-0.09551655322821487	0.6701402551300031	0.6701402551300031	-0.07942103888819461	0	0	0.2743929597401851	0.02258717931957808	-0.001705288998111281	0.2897008704376187	0.2897008704376187	0.08868103500848198	0	0	0	0	0	0	-0.2617993743194023	0	1.309000008089962	0.7853981678539818	0	0	0	-0.2617993743194023	0	1.309000008089962	0.7853981678539818	0	0
18.37000000000007	-0.05744769143036488	-0.006689687587237506	5.180759843463735	0	0.9399999999999999	0	0.3975737884001569	-0.1929781574027339	-0.08364108834876895	0.6370274808171213	0.6370274808171213	-0.07111196073907367	0	0	0.2751134947583258	0.02681265694610323	0.01076637619947719	0.2980398787733259	0.2980398787733259	0.09538274983424129	0	0	0	0	0	0	-0.2617993743654721	0	1.309000008089962	0.7853981678539818	0	0	0	-0.2617993743654721	0	1.309000008089962	0.7853981678539818	0	0
18.38000000000007	-0.05802047457829048	-0.005331858463203307	5.198842708681432	0	0.9399999999999999	0	0.4025602065744205	-0.1811573367887928	-0.07098857140784956	0.6020166274060492	0.6020166274060492	-0.06698642812343661	0	0	0.276079115560136	0.03093639899738978	0.02380055755232776	0.3071449080974442	0.3071449080974442	0.1023584109928576	0	0	0	0	0	0	-0.261799374410185	0	1.309000008089962	0.7853981678539818	0	0	0	-0.261799374410185	0	1.309000008089962	0.7853981678539818	0	0
